<svg xmlns="http://www.w3.org/2000/svg" viewBox="0 0 512 512">
  <defs>
    <linearGradient id="bg" x1="0%" y1="0%" x2="100%" y2="100%">
      <stop offset="0%" stop-color="#C8956C"/>
      <stop offset="100%" stop-color="#D4A84B"/>
    </linearGradient>
  </defs>
  <!-- Rounded background matching header logoIcon -->
  <rect width="512" height="512" rx="96" ry="96" fill="url(#bg)"/>
  <!-- Bear head icon (white, centered) -->
  <g transform="translate(256, 290) scale(3.2) matrix(1,0,0,-1,0,0)">
    <path fill="#FFFFFF" d="M0 0C1.842-4.258-5.158-5.636-7.533-7.437-8.693-8.311-9.28-9.43-8.747-10.89-7.901-13.182-3.698-12.309-2.361-13.851-1.897-14.383-1.924-15.202-2.593-15.53-3.698-16.075-7.574-14.765-9.116-14.67-11.763-14.492-13.551-15.366-15.939-15.557-16.812-15.625-18.3-15.639-17.945-14.329-17.372-12.268-11.845-13.36-11.258-10.644-11.013-9.443-11.299-8.474-12.227-7.683-14.615-5.636-21.179-4.612-20.224-.423-19.541 2.593-13.933 3.098-11.49 3.193-8.461 3.316-1.406 3.275 0 0M21.07 61.299C15.693 59.621 11.913 52.839 11.272 52.648 10.685 52.484 1.938 56.278-.355 56.742-7.396 58.202-14.397 58.092-21.329 56.1-22.953 55.623-30.145 52.143-30.813 52.634-35.48 64.179-52.238 65.557-58.911 54.94-64.97 45.292-59.989 32.451-48.635 30.39L-49.891 22.789C-45.06 30.309-24.072 43.696-16.021 37.282-9.484 32.069-22.967 23.881-25.764 19.924-19.091 20.483-18.955 9.58-26.378 10.74-28.493 11.067-29.681 12.691-29.926 14.492-37.882 6.195-40.857-8.611-31.837-17.208-22.748-25.873-.901-27.716 8.815-19.705 23.103-7.915-4.558 6.236-3.985 16.034-3.602 22.448 3.043 22.435 7.751 21.07 16.116 18.641 24.441 10.863 29.149 3.753 33.311 11.859 31.823 21.943 29.463 30.39 51.419 35.18 42.972 68.164 21.07 61.299"/>
  </g>
</svg>
